HIERARCHY
ROOT Hips
{
  OFFSET 179.979 97.3047 303.174
  CHANNELS 6 Xposition Yposition Zposition Zrotation Xrotation Yrotation
  JOINT Spine
  {
    OFFSET 0.000859786 9.92346 -1.22733
    CHANNELS 3 Zrotation Xrotation Yrotation
    JOINT Spine1
    {
      OFFSET 0 11.732 0
      CHANNELS 3 Zrotation Xrotation Yrotation
      JOINT Spine2
      {
        OFFSET 0 13.4588 0
        CHANNELS 3 Zrotation Xrotation Yrotation
        JOINT Neck
        {
          OFFSET 2.54812e-05 15.0278 0.877907
          CHANNELS 3 Zrotation Xrotation Yrotation
          JOINT Head
          {
            OFFSET 0 10.3218 3.14243
            CHANNELS 3 Zrotation Xrotation Yrotation
            End Site
            {
              OFFSET 0 0 0
            }
          }
        }
        JOINT LeftShoulder
        {
          OFFSET 6.10582 9.10629 0.757062
          CHANNELS 3 Zrotation Xrotation Yrotation
          JOINT LeftArm
          {
            OFFSET 0 12.9223 0
            CHANNELS 3 Zrotation Xrotation Yrotation
            JOINT LeftForeArm
            {
              OFFSET 0 27.4047 0
              CHANNELS 3 Zrotation Xrotation Yrotation
              JOINT LeftHand
              {
                OFFSET -1.28204e-05 27.6145 0
                CHANNELS 3 Zrotation Xrotation Yrotation
                End Site
                {
                  OFFSET 0 0 0
                }
              }
            }
          }
        }
        JOINT RightShoulder
        {
          OFFSET -6.1057 9.10638 0.757076
          CHANNELS 3 Zrotation Xrotation Yrotation
          JOINT RightArm
          {
            OFFSET 0 12.9223 0
            CHANNELS 3 Zrotation Xrotation Yrotation
            JOINT RightForeArm
            {
              OFFSET 0 27.4047 0
              CHANNELS 3 Zrotation Xrotation Yrotation
              JOINT RightHand
              {
                OFFSET 1.28428e-05 27.6145 1.44975e-05
                CHANNELS 3 Zrotation Xrotation Yrotation
                End Site
                {
                  OFFSET 0 0 0
                }
              }
            }
          }
        }
      }
    }
  }
  JOINT LeftUpLeg
  {
    OFFSET 9.12387 -6.65719 -0.0554031
    CHANNELS 3 Zrotation Xrotation Yrotation
    JOINT LeftLeg
    {
      OFFSET 0 40.5994 0
      CHANNELS 3 Zrotation Xrotation Yrotation
      JOINT LeftFoot
      {
        OFFSET 0 42.099 0
        CHANNELS 3 Zrotation Xrotation Yrotation
        JOINT LeftToeBase
        {
          OFFSET 0 15.7216 0
          CHANNELS 3 Zrotation Xrotation Yrotation
          End Site
          {
            OFFSET 0 0 0
          }
        }
      }
    }
  }
  JOINT RightUpLeg
  {
    OFFSET -9.12503 -6.6556 -0.0553527
    CHANNELS 3 Zrotation Xrotation Yrotation
    JOINT RightLeg
    {
      OFFSET 0 40.5994 0
      CHANNELS 3 Zrotation Xrotation Yrotation
      JOINT RightFoot
      {
        OFFSET 0 42.099 0
        CHANNELS 3 Zrotation Xrotation Yrotation
        JOINT RightToeBase
        {
          OFFSET 0 15.7216 0
          CHANNELS 3 Zrotation Xrotation Yrotation
          End Site
          {
            OFFSET 0 0 0
          }
        }
      }
    }
  }
}
MOTION
Frames:	20
Frame Time:	0.0333333
-199.577 98.5606 -32.3817 2.22714 -8.40828 1.21893 -0.461796 -4.90165 0.0999566 -0.92971 4.15408 0.332983 -0.972778 10.7485 0.338957 -5.06933 2.69665 -1.49457 10.5574 -13.5059 -3.98672 -91.142 -12.6524 90.4697 28.509 13.252 -12.4809 18.6259 -15.7478 -0.736632 -13.2168 -9.24854 41.5727 94.0034 -17.7917 -89.9042 -25.8551 10.6492 12.7738 -15.7824 -14.4896 0.691255 8.45742 -11.3257 -13.1565 -179.692 -10.0501 -2.39605 -2.07735 -7.47232 -8.04421 13.5938 66.7849 -14.4939 -0.965263 26.367 -3.60229 175.362 -10.8723 2.98227 5.29375 -9.13173 8.50767 -21.864 71.3908 19.1492 0.963537 26.3682 3.55537 
-199.633 98.5606 -32.4165 2.23828 -8.39409 1.24413 -0.461796 -4.90165 0.0999566 -0.929424 4.15408 0.329013 -0.97248 10.7485 0.334841 -5.06879 2.72668 -1.4889 10.5598 -13.4844 -3.98268 -91.1424 -12.5948 90.4746 28.487 13.245 -12.5155 18.659 -15.7528 -0.73665 -13.202 -9.27394 41.6574 94.0108 -17.7762 -89.906 -25.8584 10.6052 12.7748 -15.7909 -14.4904 0.691257 8.45793 -11.3074 -13.1536 -179.663 -9.82659 -2.4125 -2.05994 -7.65856 -8.0218 13.5047 66.7579 -14.425 -0.965263 26.367 -3.60229 175.387 -10.8175 2.99027 5.31017 -9.17062 8.52782 -21.9368 71.3838 19.1828 0.963537 26.3682 3.55537 
-199.739 98.5606 -32.481 2.25448 -8.36594 1.28966 -0.46164 -4.90165 0.0956512 -0.928796 4.15409 0.320301 -0.971828 10.7485 0.325862 -5.06621 2.7861 -1.47671 10.5612 -13.4508 -3.97549 -91.1429 -12.5068 90.4824 28.4779 13.2146 -12.5149 18.68 -15.7804 -0.736751 -13.2469 -9.2587 41.6469 94.0305 -17.7433 -89.9098 -25.8622 10.5103 12.7764 -15.8046 -14.4772 0.691216 8.45504 -11.3095 -13.1283 -179.607 -9.76358 -2.45151 -2.03862 -7.65076 -7.96355 13.3335 66.7071 -14.291 -0.965263 26.367 -3.60229 175.44 -10.7216 3.02357 5.3327 -9.22763 8.55258 -22.0506 71.3729 19.2223 0.963537 26.3682 3.55537 
-199.847 98.5604 -32.5444 2.26478 -8.32938 1.33358 -0.462848 -4.90165 0.0898651 -0.931192 4.15069 0.309052 -0.970964 10.7451 0.314204 -5.07896 2.84523 -1.45765 10.5798 -13.4181 -3.96715 -91.1432 -12.4474 90.4886 28.5027 13.1588 -12.4802 18.6686 -15.7953 -0.736804 -13.2893 -9.23191 41.5624 94.0456 -17.703 -89.9145 -25.8673 10.4177 12.7781 -15.8139 -14.4551 0.691148 8.44807 -11.3354 -13.1006 -179.545 -9.60984 -2.51431 -2.00793 -7.73135 -7.89463 13.1425 66.6631 -14.1386 -0.965263 26.367 -3.60229 175.503 -10.6219 3.07179 5.35005 -9.2741 8.56759 -22.1492 71.3635 19.2439 0.963537 26.3682 3.55537 
-199.954 98.56 -32.6064 2.27332 -8.2884 1.37463 -0.465275 -4.90164 0.0836361 -0.93365 4.14433 0.297234 -0.970041 10.7387 0.301932 -5.11135 2.90417 -1.43313 10.6082 -13.3853 -3.95947 -91.1519 -12.4005 90.4932 28.5376 13.0856 -12.4538 18.656 -15.8061 -0.73717 -13.2824 -9.2213 41.5321 94.044 -17.6584 -89.9202 -25.8712 10.3422 12.7794 -15.8183 -14.4278 0.691063 8.44091 -11.3822 -13.079 -179.482 -9.56397 -2.58714 -1.98102 -7.70496 -7.81748 12.9473 66.6244 -13.9827 -0.965263 26.367 -3.60229 175.565 -10.5216 3.1416 5.36573 -9.31731 8.56771 -22.2226 71.3579 19.2377 0.963537 26.3682 3.55537 
-200.06 98.5596 -32.6655 2.28496 -8.24683 1.41187 -0.46838 -4.90585 0.0780375 -0.935893 4.13605 0.28684 -0.96922 10.7305 0.291181 -5.16554 2.95569 -1.40316 10.6391 -13.3402 -3.95304 -91.1657 -12.3584 90.4978 28.5682 13.003 -12.4422 18.6568 -15.8171 -0.737358 -13.2373 -9.19791 41.5407 94.0222 -17.6131 -89.9268 -25.8737 10.2889 12.7803 -15.8179 -14.4035 0.690987 8.4438 -11.3928 -13.0906 -179.422 -9.45176 -2.65479 -1.95545 -7.74699 -7.74887 12.7647 66.5883 -13.8394 -0.965263 26.367 -3.60229 175.618 -10.4214 3.24663 5.38203 -9.36721 8.54394 -22.259 71.3649 19.1908 0.963537 26.3682 3.55537 
-200.162 98.5591 -32.7207 2.30741 -8.20495 1.44476 -0.471666 -4.91122 0.0747126 -0.937333 4.1253 0.279918 -0.968648 10.7197 0.283997 -5.22907 2.97478 -1.36838 10.6557 -13.2442 -3.94572 -91.1754 -12.3127 90.5029 28.5877 12.9283 -12.4553 18.674 -15.8203 -0.737383 -13.2136 -9.19076 41.5552 93.979 -17.5715 -89.9333 -25.8755 10.2658 12.7783 -15.8136 -14.3929 0.690955 8.46255 -11.3247 -13.1314 -179.377 -9.27756 -2.71522 -1.92989 -7.85116 -7.69099 12.5989 66.5529 -13.7119 -0.965263 26.367 -3.60229 175.646 -10.3139 3.41655 5.40404 -9.44249 8.4782 -22.2314 71.3976 19.0729 0.963537 26.3682 3.55537 
-200.258 98.5586 -32.772 2.34204 -8.17017 1.47987 -0.474537 -4.9161 0.0725887 -0.944771 4.11559 0.277109 -0.975756 10.71 0.28112 -5.28897 2.96346 -1.32854 10.6605 -13.0968 -3.93413 -91.1742 -12.2555 90.5083 28.596 12.868 -12.4918 18.7013 -15.8098 -0.737269 -13.2031 -9.23582 41.5507 93.9252 -17.5349 -89.9396 -25.8705 10.2618 12.7699 -15.8074 -14.391 0.690949 8.48997 -11.1894 -13.1315 -179.347 -9.25421 -2.77189 -1.91292 -7.80997 -7.63071 12.4401 66.5169 -13.5889 -0.965263 26.367 -3.60229 175.659 -10.2146 3.52392 5.43218 -9.5195 8.44967 -22.2719 71.43 19.0358 0.963537 26.3682 3.55537 
-200.349 98.5582 -32.8204 2.38459 -8.15154 1.52344 -0.47644 -4.91752 0.0717389 -0.956604 4.11073 0.276115 -0.987462 10.7051 0.2801 -5.3021 3.00264 -1.30362 10.5835 -13.0493 -3.90971 -91.1471 -12.1821 90.5147 28.5939 12.8388 -12.5319 18.7036 -15.803 -0.737124 -13.1891 -9.27756 41.4968 93.9052 -17.5015 -89.9444 -25.8537 10.2228 12.7463 -15.7939 -14.3836 0.690926 8.51707 -11.076 -13.1052 -179.326 -9.1404 -2.81746 -1.89702 -7.87525 -7.57662 12.2895 66.4827 -13.471 -0.965263 26.367 -3.60229 175.667 -10.1335 3.5487 5.46277 -9.59226 8.47409 -22.4052 71.4546 19.1082 0.963537 26.3682 3.55537 
-200.435 98.558 -32.8645 2.42984 -8.15775 1.5896 -0.477356 -4.9162 0.0677854 -0.970566 4.11529 0.270979 -1.00086 10.7097 0.274912 -5.28244 3.11499 -1.28305 10.4919 -13.1288 -3.87164 -91.1069 -12.0926 90.5235 28.5816 12.8221 -12.5591 18.6949 -15.8048 -0.73701 -13.1925 -9.29723 41.444 93.9367 -17.4741 -89.9471 -25.8257 10.1391 12.737 -15.7942 -14.3801 0.690915 8.54046 -11.0741 -13.0969 -179.301 -9.1234 -2.83244 -1.8945 -7.87489 -7.52518 12.1541 66.4555 -13.3647 -0.965263 26.367 -3.60229 175.678 -10.0929 3.55128 5.49022 -9.64894 8.52219 -22.5781 71.4745 19.2323 0.963537 26.3682 3.55537 
-200.517 98.5579 -32.9042 2.46583 -8.18648 1.66393 -0.47786 -4.91012 0.0626702 -0.976192 4.12753 0.260798 -1.00527 10.7219 0.264563 -5.28581 3.25089 -1.25571 10.4654 -13.2277 -3.83956 -91.0858 -12.0042 90.5314 28.5599 12.8101 -12.5556 18.6747 -15.833 -0.737037 -13.1754 -9.25501 41.5072 93.9662 -17.438 -89.951 -25.7834 10.0705 12.7635 -15.8217 -14.3874 0.690937 8.53759 -11.1353 -13.1344 -179.26 -9.05647 -2.82549 -1.90149 -7.95475 -7.48363 12.0369 66.4367 -13.274 -0.965263 26.367 -3.60229 175.71 -10.0887 3.56233 5.49935 -9.68776 8.56763 -22.7378 71.4899 19.3526 0.963537 26.3682 3.55537 
-200.595 98.5548 -32.9413 2.49679 -8.22062 1.73587 -0.478016 -4.90368 0.0587853 -0.97694 4.14047 0.251813 -1.00498 10.7349 0.255543 -5.31249 3.34929 -1.22025 10.5216 -13.2413 -3.82028 -91.0792 -11.9318 90.5384 28.5548 12.801 -12.5281 18.6495 -15.865 -0.737167 -13.1393 -9.19214 41.6036 93.9904 -17.4038 -89.9547 -25.7496 10.0088 12.735 -15.8423 -14.3951 0.690961 8.53742 -11.1636 -13.1783 -179.214 -9.05533 -2.80579 -1.9184 -7.97854 -7.44904 11.9379 66.422 -13.2002 -0.965263 26.367 -3.60229 175.75 -10.0901 3.59669 5.49097 -9.7309 8.59681 -22.8618 71.5104 19.4453 0.963537 26.3682 3.55537 
-200.668 98.5518 -32.9775 2.5293 -8.24131 1.80729 -0.477875 -4.90066 0.0581122 -0.975586 4.14655 0.242752 -1.00243 10.741 0.246339 -5.32653 3.39643 -1.19038 10.574 -13.1567 -3.8092 -91.0835 -11.8804 90.5439 28.5698 12.7867 -12.4746 18.6122 -15.8832 -0.737381 -13.1281 -9.14651 41.6101 94.0079 -17.3736 -89.9582 -25.74 9.95447 12.6833 -15.824 -14.4071 0.690998 8.53064 -11.1334 -13.1889 -179.175 -9.02801 -2.7772 -1.93486 -8.014 -7.42076 11.8501 66.4062 -13.1363 -0.965263 26.367 -3.60229 175.785 -10.0707 3.64201 5.47808 -9.78774 8.61972 -22.9707 71.5364 19.5281 0.963537 26.3682 3.55537 
-200.736 98.5489 -33.0122 2.56282 -8.25355 1.87766 -0.477293 -4.89815 0.0571001 -0.972813 4.15065 0.234729 -0.99899 10.7451 0.238118 -5.3446 3.40615 -1.17134 10.6056 -13.0392 -3.80911 -91.0929 -11.8273 90.5496 28.573 12.767 -12.4224 18.5823 -15.8897 -0.737732 -13.1644 -9.11787 41.5482 94.0163 -17.3611 -89.9597 -25.7612 9.90642 12.6041 -15.7908 -14.4149 0.691023 8.56447 -11.0678 -13.1428 -179.141 -9.00225 -2.73955 -1.95145 -8.03707 -7.39812 11.7718 66.388 -13.0817 -0.965263 26.367 -3.60229 175.813 -10.0426 3.67655 5.47109 -9.84529 8.64868 -23.0884 71.5609 19.6212 0.963537 26.3682 3.55537 
-200.801 98.5463 -33.0446 2.59313 -8.26236 1.94536 -0.476261 -4.89586 0.05596 -0.969029 4.15585 0.225214 -0.993937 10.7503 0.228452 -5.37246 3.4062 -1.14878 10.6146 -12.9513 -3.80246 -91.1011 -11.7807 90.5545 28.561 12.7465 -12.3953 18.5699 -15.8837 -0.73826 -13.2205 -9.12477 41.4841 94.0073 -17.3488 -89.9619 -25.7977 9.87528 12.5529 -15.7616 -14.4064 0.690996 8.63239 -10.9999 -13.0702 -179.108 -8.96443 -2.70853 -1.96319 -8.06969 -7.37355 11.6882 66.3706 -13.0243 -0.965263 26.367 -3.60229 175.841 -10.0173 3.69385 5.47045 -9.89232 8.68612 -23.2193 71.579 19.7267 0.963537 26.3682 3.55537 
-200.865 98.5435 -33.0742 2.61803 -8.26761 2.0091 -0.474766 -4.8936 0.0547861 -0.962948 4.16081 0.217971 -0.986987 10.7553 0.221104 -5.38634 3.41113 -1.11586 10.5972 -12.9077 -3.77479 -91.1043 -11.75 90.5578 28.5613 12.7244 -12.3881 18.5724 -15.8726 -0.739038 -13.2732 -9.14547 41.4385 93.9922 -17.3326 -89.9639 -25.8287 9.85082 12.5456 -15.7256 -14.3714 0.690888 8.66858 -10.9707 -12.9455 -179.073 -8.90856 -2.7048 -1.96881 -8.12528 -7.33472 11.5815 66.3622 -12.9471 -0.965263 26.367 -3.60229 175.873 -9.99133 3.70337 5.47245 -9.93087 8.72829 -23.3538 71.5903 19.8356 0.963537 26.3682 3.55537 
-200.928 98.5406 -33.1005 2.63917 -8.26918 2.06783 -0.472792 -4.89131 0.0536728 -0.954663 4.16431 0.215613 -0.978635 10.7587 0.218696 -5.38994 3.41931 -1.07223 10.5459 -12.8848 -3.72784 -91.1097 -11.7181 90.5612 28.5682 12.687 -12.3809 18.5791 -15.8631 -0.740134 -13.2727 -9.15184 41.4078 93.9712 -17.3259 -89.9652 -25.8791 9.85069 12.6431 -15.6719 -14.3679 0.690877 8.63121 -10.9096 -12.951 -179.037 -8.84711 -2.71607 -1.9717 -8.19053 -7.28946 11.4655 66.3613 -12.8633 -0.965263 26.367 -3.60229 175.906 -9.96787 3.70899 5.47552 -9.95976 8.77133 -23.4879 71.5978 19.9434 0.963537 26.3682 3.55537 
-200.987 98.538 -33.1244 2.65938 -8.26932 2.12505 -0.468781 -4.8892 0.0529018 -0.945913 4.16767 0.215617 -0.969932 10.7621 0.2187 -5.40978 3.42932 -1.03073 10.5303 -12.875 -3.69038 -91.1146 -11.699 90.5627 28.5917 12.6438 -12.3733 18.5753 -15.8617 -0.741617 -13.2061 -9.16201 41.3953 93.9411 -17.316 -89.9672 -25.8994 9.85474 12.6181 -15.673 -14.395 0.690961 8.65465 -10.8804 -12.9376 -179.001 -8.81388 -2.6903 -1.9732 -8.22532 -7.2663 11.3863 66.3582 -12.8181 -0.965263 26.367 -3.60229 175.937 -9.94776 3.71266 5.48095 -9.98198 8.80826 -23.6086 71.604 20.0365 0.963537 26.3682 3.55537 
-201.043 98.536 -33.1448 2.6799 -8.26846 2.17829 -0.465046 -4.8871 0.0522853 -0.937896 4.17208 0.217504 -0.961896 10.7665 0.22065 -5.42394 3.43958 -1.00026 10.5155 -12.8746 -3.66193 -91.1201 -11.7033 90.5628 28.6321 12.5933 -12.3568 18.5647 -15.8774 -0.743566 -13.1465 -9.16654 41.3904 93.8934 -17.3018 -89.9702 -25.8919 9.85424 12.4785 -15.7124 -14.4348 0.691084 8.6708 -10.8783 -12.7873 -178.97 -8.76022 -2.66066 -1.97822 -8.27166 -7.24886 11.3136 66.347 -12.7772 -0.965263 26.367 -3.60229 175.962 -9.93182 3.71436 5.48751 -9.99895 8.83883 -23.7159 71.6098 20.1147 0.963537 26.3682 3.55537 
-201.099 98.5342 -33.1601 2.699 -8.26708 2.22578 -0.461771 -4.88441 0.051783 -0.929961 4.17921 0.222995 -0.954609 10.7737 0.226229 -5.43813 3.45864 -0.994754 10.5046 -12.9069 -3.65695 -91.1144 -11.6974 90.5634 28.6627 12.5516 -12.3672 18.563 -15.9174 -0.747499 -13.1411 -9.12637 41.3988 93.8607 -17.2921 -89.9723 -25.877 9.84212 12.3833 -15.7514 -14.4667 0.691184 8.66142 -10.8353 -12.6476 -178.938 -8.76313 -2.64335 -1.98656 -8.25794 -7.2252 11.2343 66.3314 -12.7263 -0.965263 26.367 -3.60229 175.988 -9.92307 3.716 5.49469 -10.0089 8.87181 -23.8267 71.6133 20.1975 0.963537 26.3682 3.55537 
